<svg xmlns="http://www.w3.org/2000/svg" xmlns:xlink="http://www.w3.org/1999/xlink" version="1.1" x="0px" y="0px" viewBox="0 0 90 90" enable-background="new 0 0 90 90" xml:space="preserve"><path d="M77.546,34.59H12.455c-1.816,0-3.288,1.472-3.288,3.288v14.246c0,1.815,1.472,3.287,3.288,3.287h65.091  c1.815,0,3.287-1.472,3.287-3.287V37.877C80.833,36.062,79.361,34.59,77.546,34.59z M57.491,48.178H16.508v-6.355h40.983V48.178z   M72.229,47.959c-1.634,0-2.958-1.325-2.958-2.959s1.324-2.958,2.958-2.958c1.635,0,2.959,1.325,2.959,2.958  S73.864,47.959,72.229,47.959z M77.546,58.465H12.455c-1.816,0-3.288,1.472-3.288,3.287v14.246c0,1.815,1.472,3.287,3.288,3.287  h65.091c1.815,0,3.287-1.472,3.287-3.287V61.752C80.833,59.937,79.361,58.465,77.546,58.465z M57.491,72.053H16.508v-6.355h40.983  V72.053z M72.229,71.834c-1.634,0-2.958-1.325-2.958-2.959s1.324-2.959,2.958-2.959c1.635,0,2.959,1.325,2.959,2.959  S73.864,71.834,72.229,71.834z M77.546,10.215H12.455c-1.816,0-3.288,1.472-3.288,3.288v14.246c0,1.815,1.472,3.287,3.288,3.287  h65.091c1.815,0,3.287-1.472,3.287-3.287V13.502C80.833,11.687,79.361,10.215,77.546,10.215z M57.491,23.803H16.508v-6.355h40.983  V23.803z M72.229,23.584c-1.634,0-2.958-1.325-2.958-2.959s1.324-2.958,2.958-2.958c1.635,0,2.959,1.325,2.959,2.958  S73.864,23.584,72.229,23.584z"/></svg>