<svg xmlns="http://www.w3.org/2000/svg" version="1.1" viewBox="-5.0 -10.0 110.0 110.0">
 <path d="m76.953 14.352h5.1523c2.7461 0 5.2422 1.125 7.0547 2.9336 1.8203 1.8203 2.9414 4.3164 2.9414 7.0625v49.508h2.8164c1.1055 0 2 0.89453 2 2v3.7695c0 3.2891-1.3477 6.2891-3.5234 8.4688l-0.011719 0.011719c-2.1758 2.1719-5.1758 3.5195-8.4609 3.5195h-69.848c-3.2891 0-6.2891-1.3477-8.4688-3.5234l-0.011719-0.011718c-2.1719-2.1758-3.5195-5.1758-3.5195-8.4609v-3.7695c0-1.1055 0.89453-2 2-2h2.8164v-49.508c0-2.7461 1.125-5.2422 2.9336-7.0547 1.8203-1.8203 4.3164-2.9414 7.0625-2.9414h5.1523c0.003907-1.6406 0.67969-3.1328 1.7617-4.2148 1.0938-1.0938 2.5938-1.7695 4.2383-1.7695h41.91c1.6445 0 3.1445 0.67578 4.2305 1.7617 1.0898 1.0898 1.7617 2.582 1.7695 4.2227zm-37.238 40.543c-1.1055 0-2-0.89453-2-2s0.89453-2 2-2h26.23c1.1055 0 2 0.89453 2 2s-0.89453 2-2 2zm0-5.3047c-1.1055 0-2-0.89453-2-2 0-1.1055 0.89453-2 2-2h6.1406c1.1055 0 2 0.89453 2 2 0 1.1055-0.89453 2-2 2zm9.3398-16.578c-1.1055 0-2-0.89453-2-2s0.89453-2 2-2h16.891c1.1055 0 2 0.89453 2 2v10.062c0 1.1055-0.89453 2-2 2h-16.891c-1.1055 0-2-0.89453-2-2s0.89453-2 2-2h14.891v-6.0625zm-13.277 13.762c-0.54688 0.95312-1.7656 1.2812-2.7188 0.73437-0.95312-0.54687-1.2812-1.7656-0.73438-2.7188l2.3281-4.0352c-1.1797-1.2461-1.9023-2.9297-1.9023-4.7773 0-1.9219 0.78125-3.6641 2.0391-4.9219 1.2578-1.2578 3-2.0391 4.9219-2.0391 1.9219 0 3.6602 0.78125 4.9219 2.0391 1.2578 1.2578 2.0391 3 2.0391 4.9219 0 1.9219-0.78125 3.6602-2.0391 4.9219-1.2578 1.2578-3 2.0391-4.9219 2.0391-0.55469 0-1.0938-0.066406-1.6094-0.1875l-2.3242 4.0273zm6.0273-12.895c-0.53516-0.53516-1.2773-0.86719-2.0938-0.86719-0.81641 0-1.5586 0.33203-2.0938 0.86719-0.53516 0.53516-0.86719 1.2773-0.86719 2.0938s0.33203 1.5586 0.86719 2.0938c0.53516 0.53516 1.2773 0.86719 2.0938 0.86719 0.81641 0 1.5586-0.33203 2.0938-0.86719 0.53516-0.53516 0.86719-1.2773 0.86719-2.0938s-0.33203-1.5586-0.86719-2.0938zm5.3828-15.527c-1.1055 0-2-0.89453-2-2 0-1.1055 0.89453-2 2-2h1.9219c1.1055 0 2 0.89453 2 2 0 1.1055-0.89453 2-2 2zm-7.8945 0c-1.1055 0-2-0.89453-2-2 0-1.1055 0.89453-2 2-2h1.9219c1.1055 0 2 0.89453 2 2 0 1.1055-0.89453 2-2 2zm-7.8945 0c-1.1055 0-2-0.89453-2-2 0-1.1055 0.89453-2 2-2h1.9219c1.1055 0 2 0.89453 2 2 0 1.1055-0.89453 2-2 2zm-4.3555 1.168h45.91v-5.1523c0-0.55078-0.22656-1.0547-0.58594-1.4141-0.36328-0.35938-0.86328-0.58594-1.4141-0.58594h-41.91c-0.55078 0-1.0547 0.22656-1.4141 0.58594-0.35938 0.36328-0.58594 0.86328-0.58594 1.4141zm45.91 4h-45.91v33.129c0 0.55078 0.22656 1.0547 0.58594 1.4141 0.36328 0.35938 0.86328 0.58594 1.4141 0.58594h41.91c0.55078 0 1.0547-0.22656 1.4141-0.58594 0.35937-0.36328 0.58594-0.86328 0.58594-1.4141zm-49.91-5.168h-5.1523c-1.6523 0-3.1523 0.67578-4.2383 1.7617-1.0859 1.0859-1.7617 2.5898-1.7617 4.2383v49.508h76.211v-49.508c0-1.6523-0.67578-3.1523-1.7617-4.2383-1.0859-1.0859-2.5898-1.7617-4.2383-1.7617h-5.1523v4.2031h5.207c1.1055 0 2 0.89453 2 2v42.449c0 1.1055-0.89453 2-2 2h-64.324c-1.1055 0-2-0.89453-2-2v-42.449c0-1.1055 0.89453-2 2-2h5.207v-4.2031zm53.91 8.2031v30.094c0 1.6445-0.67578 3.1445-1.7617 4.2305-1.0938 1.0938-2.5938 1.7695-4.2383 1.7695h-41.91c-1.6445 0-3.1445-0.67578-4.2305-1.7617-1.0938-1.0938-1.7695-2.5938-1.7695-4.2383v-30.094h-3.207v38.449h60.324v-38.449zm-38.617 51.305-1.25 2.8867h25.828l-1.25-2.8867zm27.668 0 1.6992 3.9219c0.15625 0.28516 0.24609 0.61328 0.24609 0.96094 0 1.1055-0.89453 2-2 2h-31.902c-0.26172-0.007813-0.53125-0.058594-0.78906-0.17188-1.0078-0.43359-1.4727-1.6094-1.0391-2.6172l1.7734-4.0977h-26.918v1.7695c0 2.2031 0.89844 4.2031 2.3438 5.6484 1.4531 1.4531 3.4531 2.3516 5.6562 2.3516h69.848c2.2031 0 4.2031-0.89844 5.6484-2.3438 1.4531-1.4531 2.3516-3.4531 2.3516-5.6562v-1.7695h-26.918z"/>
</svg>