<svg xmlns="http://www.w3.org/2000/svg" width="1200" height="630" viewBox="0 0 1200 630" fill="none">
  <defs>
    <linearGradient id="bg" x1="0" y1="0" x2="1200" y2="630" gradientUnits="userSpaceOnUse">
      <stop stop-color="#0B1A2B"/>
      <stop offset="0.58" stop-color="#10385E"/>
      <stop offset="1" stop-color="#1D5A75"/>
    </linearGradient>
    <linearGradient id="panel" x1="250" y1="170" x2="930" y2="500" gradientUnits="userSpaceOnUse">
      <stop stop-color="#0C2239" stop-opacity="0.92"/>
      <stop offset="1" stop-color="#102B45" stop-opacity="0.82"/>
    </linearGradient>
    <filter id="softShadow" x="0" y="0" width="1200" height="630" filterUnits="userSpaceOnUse" color-interpolation-filters="sRGB">
      <feDropShadow dx="0" dy="20" stdDeviation="22" flood-color="#02070F" flood-opacity="0.42"/>
    </filter>
    <pattern id="grid" width="44" height="44" patternUnits="userSpaceOnUse">
      <path d="M44 0H0V44" stroke="#BFD8EE" stroke-opacity="0.1"/>
    </pattern>
    <linearGradient id="flow" x1="0" y1="0" x2="1" y2="0">
      <stop offset="0" stop-color="#8AD3FF"/>
      <stop offset="1" stop-color="#5EE1BD"/>
    </linearGradient>
  </defs>

  <rect width="1200" height="630" fill="url(#bg)"/>
  <rect width="1200" height="630" fill="url(#grid)"/>

  <circle cx="1065" cy="84" r="170" fill="#7AC3FF" fill-opacity="0.08"/>
  <circle cx="88" cy="548" r="190" fill="#68E3C1" fill-opacity="0.08"/>

  <g opacity="0.75">
    <circle cx="190" cy="132" r="16" fill="#B8E0FF"/>
    <circle cx="1020" cy="238" r="16" fill="#9DEAD6"/>
    <circle cx="990" cy="484" r="16" fill="#B8E0FF"/>
    <path d="M206 132C430 132 520 236 730 236C850 236 920 238 1004 238" stroke="url(#flow)" stroke-width="5" stroke-linecap="round"/>
    <path d="M206 132C360 132 420 484 730 484C850 484 910 484 974 484" stroke="url(#flow)" stroke-width="3" stroke-linecap="round" stroke-dasharray="1 13"/>
  </g>

  <g filter="url(#softShadow)">
    <rect x="255" y="170" width="690" height="330" rx="34" fill="url(#panel)" stroke="#D8EBFA" stroke-opacity="0.2"/>

    <rect x="305" y="218" width="88" height="88" rx="22" fill="#0F304F" stroke="#B8E0FF" stroke-opacity="0.34"/>
    <path d="M333 255H365" stroke="#EAF7FF" stroke-width="6" stroke-linecap="round"/>
    <path d="M349 239V271" stroke="#EAF7FF" stroke-width="6" stroke-linecap="round"/>

    <rect x="418" y="218" width="88" height="88" rx="22" fill="#0F304F" stroke="#A3E8D5" stroke-opacity="0.34"/>
    <circle cx="462" cy="250" r="12" stroke="#E8FFF8" stroke-width="6"/>
    <path d="M440 282C444 269 454 262 462 262C470 262 480 269 484 282" stroke="#E8FFF8" stroke-width="6" stroke-linecap="round" stroke-linejoin="round"/>

    <text x="305" y="360" fill="#F3FAFF" font-family="Avenir Next, Helvetica Neue, Arial, sans-serif" font-size="66" font-weight="800">Open source:</text>
    <text x="305" y="432" fill="#F3FAFF" font-family="Avenir Next, Helvetica Neue, Arial, sans-serif" font-size="66" font-weight="800">Who is your DR?</text>

  </g>
</svg>
